<svg width="401" height="206" viewBox="0 0 401 206" fill="none" xmlns="http://www.w3.org/2000/svg">
    <rect x="351" y="182" width="8" height="8" fill="#9B8AFB"/>
    <rect x="364" y="182" width="8" height="8" fill="#9B8AFB"/>
    <rect x="377" y="182" width="8" height="8" fill="#9B8AFB"/>
    <rect x="393" y="182" width="8" height="8" fill="#9B8AFB"/>
    <rect x="385" y="174" width="8" height="8" fill="#9B8AFB"/>
    <rect x="377" y="166" width="8" height="8" fill="#9B8AFB"/>
    <rect x="385" y="190" width="8" height="8" fill="#9B8AFB"/>
    <rect x="377" y="198" width="8" height="8" fill="#9B8AFB"/>
    <rect x="338" y="182" width="8" height="8" fill="#9B8AFB"/>
    <rect x="338" y="117" width="8" height="8" fill="#9B8AFB"/>
    <rect x="338" y="156" width="8" height="8" fill="#9B8AFB"/>
    <rect x="338" y="78" width="8" height="8" fill="#9B8AFB"/>
    <rect x="338" y="13" width="8" height="8" fill="#9B8AFB"/>
    <rect x="338" y="104" width="8" height="8" fill="#9B8AFB"/>
    <rect x="338" y="39" width="8" height="8" fill="#9B8AFB"/>
    <rect x="338" y="143" width="8" height="8" fill="#9B8AFB"/>
    <rect x="338" y="65" width="8" height="8" fill="#9B8AFB"/>
    <rect x="338" width="8" height="8" fill="#9B8AFB"/>
    <rect x="338" y="169" width="8" height="8" fill="#9B8AFB"/>
    <rect x="338" y="91" width="8" height="8" fill="#9B8AFB"/>
    <rect x="338" y="26" width="8" height="8" fill="#9B8AFB"/>
    <rect x="338" y="130" width="8" height="8" fill="#9B8AFB"/>
    <rect x="338" y="52" width="8" height="8" fill="#9B8AFB"/>
    <rect x="246" width="8" height="8" fill="#9B8AFB"/>
    <rect x="234" width="8" height="8" fill="#9B8AFB"/>
    <rect x="130" width="8" height="8" fill="#9B8AFB"/>
    <rect x="286" width="8" height="8" fill="#9B8AFB"/>
    <rect x="182" width="8" height="8" fill="#9B8AFB"/>
    <rect x="78" width="8" height="8" fill="#9B8AFB"/>
    <rect x="312" width="8" height="8" fill="#9B8AFB"/>
    <rect x="208" width="8" height="8" fill="#9B8AFB"/>
    <rect x="104" width="8" height="8" fill="#9B8AFB"/>
    <rect x="260" width="8" height="8" fill="#9B8AFB"/>
    <rect x="156" width="8" height="8" fill="#9B8AFB"/>
    <rect x="52" width="8" height="8" fill="#9B8AFB"/>
    <rect x="325" width="8" height="8" fill="#9B8AFB"/>
    <rect x="221" width="8" height="8" fill="#9B8AFB"/>
    <rect x="117" width="8" height="8" fill="#9B8AFB"/>
    <rect x="273" width="8" height="8" fill="#9B8AFB"/>
    <rect x="169" width="8" height="8" fill="#9B8AFB"/>
    <rect x="65" width="8" height="8" fill="#9B8AFB"/>
    <rect x="299" width="8" height="8" fill="#9B8AFB"/>
    <rect x="195" width="8" height="8" fill="#9B8AFB"/>
    <rect x="91" width="8" height="8" fill="#9B8AFB"/>
    <rect x="143" width="8" height="8" fill="#9B8AFB"/>
    <rect x="39" width="8" height="8" fill="#9B8AFB"/>
    <rect x="26" width="8" height="8" fill="#9B8AFB"/>
    <rect x="13" width="8" height="8" fill="#9B8AFB"/>
    <rect x="13" y="91" width="8" height="8" fill="#9B8AFB"/>
    <rect x="13" y="39" width="8" height="8" fill="#9B8AFB"/>
    <rect x="13" y="143" width="8" height="8" fill="#9B8AFB"/>
    <rect x="13" y="13" width="8" height="8" fill="#9B8AFB"/>
    <rect x="13" y="117" width="8" height="8" fill="#9B8AFB"/>
    <rect x="13" y="65" width="8" height="8" fill="#9B8AFB"/>
    <rect x="13" y="169" width="8" height="8" fill="#9B8AFB"/>
    <rect x="13" y="104" width="8" height="8" fill="#9B8AFB"/>
    <rect x="13" y="52" width="8" height="8" fill="#9B8AFB"/>
    <rect x="13" y="156" width="8" height="8" fill="#9B8AFB"/>
    <rect x="13" y="26" width="8" height="8" fill="#9B8AFB"/>
    <rect x="13" y="130" width="8" height="8" fill="#9B8AFB"/>
    <rect x="13" y="78" width="8" height="8" fill="#9B8AFB"/>
    <rect x="13" y="182" width="8" height="8" fill="#9B8AFB"/>
    <rect y="182" width="8" height="8" fill="#9B8AFB"/>
</svg>
